<svg fill="#fff" height="50" viewBox="0 0 50 50" width="50" xmlns="http://www.w3.org/2000/svg"><path d="m41.625 10.769531c-3.980469-3.203125-10.277344-3.746093-10.546875-3.765625-.417969-.035156-.816406.199219-.988281.585938-.015625.023437-.152344.339844-.304688.832031 2.632813.445313 5.867188 1.339844 8.792969 3.15625.46875.289063.613281.90625.324219 1.375-.191406.308594-.515625.476563-.851563.476563-.179687 0-.363281-.050782-.527343-.152344-5.03125-3.121094-11.3125-3.277344-12.523438-3.277344-1.210937 0-7.496094.15625-12.523437 3.277344-.46875.292969-1.085938.148437-1.375-.320313-.292969-.472656-.148438-1.085937.320312-1.378906 2.925781-1.8125 6.160156-2.710937 8.792969-3.152344-.152344-.496093-.289063-.808593-.300781-.835937-.175782-.386719-.570313-.628906-.992188-.585938-.269531.019532-6.566406.5625-10.601562 3.808594-2.105469 1.949219-6.320313 13.339844-6.320313 23.1875 0 .175781.046875.34375.132813.496094 2.90625 5.109375 10.839843 6.445312 12.648437 6.503906h.03125c.320313 0 .621094-.152344.808594-.410156l1.828125-2.515625c-4.933594-1.273438-7.453125-3.4375-7.597656-3.566406-.414063-.363282-.453125-.996094-.085938-1.410157.363281-.414062.996094-.453125 1.410156-.089843.058594.054687 4.699219 3.992187 13.824219 3.992187 9.140625 0 13.78125-3.953125 13.828125-3.992187.414063-.359375 1.042969-.324219 1.410156.09375.363282.414062.324219 1.042968-.089843 1.40625-.144532.128906-2.664063 2.292968-7.597657 3.566406l1.828125 2.515625c.1875.257812.488282.410156.808594.410156h.03125c1.808594-.058594 9.742188-1.394531 12.648438-6.503906.085937-.152344.132812-.320313.132812-.496094 0-9.847656-4.214844-21.238281-6.375-23.230469zm-23.125 19.230469c-1.933594 0-3.5-1.789062-3.5-4 0-2.210937 1.566406-4 3.5-4s3.5 1.789063 3.5 4c0 2.210938-1.566406 4-3.5 4zm13 0c-1.933594 0-3.5-1.789062-3.5-4 0-2.210937 1.566406-4 3.5-4s3.5 1.789063 3.5 4c0 2.210938-1.566406 4-3.5 4z"/></svg>