<svg fill="#fff" height="48" viewBox="0 0 24 24" width="48" xmlns="http://www.w3.org/2000/svg"><path d="m10.490234 2c-.479 0-.8884684.3385938-.9804684.8085938l-.3339844 1.7148437c-.8207588.3103637-1.579677.7439666-2.2460937 1.2910156l-1.6445313-.5664062c-.4529999-.156-.9514062.0313125-1.1914062.4453125l-1.5078125 2.6132812c-.239.415-.1520156.9418594.2089844 1.2558594l1.3183593 1.146484c-.0685631.421353-.1132812.8503-.1132812 1.291016s.0447181.869663.1132812 1.291016l-1.3183593 1.146484c-.361.314-.4479844.840859-.2089844 1.255859l1.5078125 2.613282c.239.415.7384062.602265 1.1914062.447265l1.6445313-.566406c.6661967.546706 1.4257059.978839 2.2460937 1.289062l.3339844 1.714844c.092.47.5014684.808594.9804684.808594h3.019532c.479 0 .888468-.338594.980468-.808594l.333985-1.714844c.820759-.310363 1.579677-.743966 2.246093-1.291015l1.644532.566406c.453.156.951406-.030312 1.191406-.445312l1.507812-2.615235c.239001-.415.152016-.939906-.208984-1.253906l-1.318359-1.146484c.068563-.421353.113281-.8503.113281-1.291016s-.044718-.869663-.113281-1.291016l1.318359-1.146484c.361-.314.447985-.8408594.208984-1.2558594l-1.507812-2.6132812c-.239-.415-.738406-.6022657-1.191406-.4472656l-1.644532.5664062c-.666196-.5467063-1.425705-.9788391-2.246093-1.2890625l-.333985-1.7148437c-.092-.4700001-.501468-.8085938-.980468-.8085938zm1.509766 6c2.209 0 4 1.791 4 4s-1.791 4-4 4-4-1.791-4-4 1.791-4 4-4z"/></svg>