<?xml version="1.0" encoding="utf-8"?>
<!-- Generator: Adobe Illustrator 21.1.0, SVG Export Plug-In . SVG Version: 6.00 Build 0)  -->
<svg version="1.1" id="Layer_1" xmlns="http://www.w3.org/2000/svg" xmlns:xlink="http://www.w3.org/1999/xlink" x="0px" y="0px"
	 viewBox="0 0 147.2 204" style="enable-background:new 0 0 147.2 204;" xml:space="preserve">
<style type="text/css">
	.st0{fill:#F21937; stroke: #000000; stroke-width: 7px;}
</style>
<g>
	<g>
		<path class="st0" d="M0,166.4c4.7-38.7,5.3-79.9,18.8-115.1C37,58.5,48.3,46.7,49,6.5c-1-0.1-1.6,0-2.7-0.2c-0.1-2,0-4.4-0.2-6.3
			c2.2,0,4.3,0,6.8,0c0.1,3.8-0.3,7.6-0.2,11.4c1.2-0.1,2.7,0,3.9-0.2c1.7,4.6,2.2,8.9,1.6,13.5C69,28.3,75.6,42.3,78.1,64.2
			c23.5-23.5,24.8-58.6,56.4-52.8c4,15.4,8.1,30.8,12.1,46.2c0.8,3.1,0.1,5.1-0.3,7c-6,19.9-7.7,40.4-9.5,61.1
			c-0.4,3.7-5.9,5.3-5.9,0c-0.7-20.9-1.2-41.9-1.8-62.8c-23.3,1.8-33.6,37.5-43.6,89.8c-8.4-2.5-16.7-5-25.1-7.4
			c-1.4-16.6-2.9-33.1-4.3-49.7c-1.7-0.1-3.4-0.3-5.1-0.4C40.5,129,44.7,193.6,27,204c-6.9-11.3-17.5-22.6-17.6-36.4
			C6.3,167.2,3.1,166.8,0,166.4L0,166.4z"/>
	</g>
</g>
</svg>
