<svg version="1" xmlns="http://www.w3.org/2000/svg" width="666.667" height="666.667" viewBox="0 0 500.000000 500.000000"><path d="M201.8 96c-12 1.4-22.8 5.4-32.3 12-7.2 5-21 19.3-26 27-6.7 10.2-18.2 32.9-31 61-5.8 12.9-11.7 24.8-13.1 26.3l-2.5 2.9-10.7-3.2c-34.7-10.5-43-12.3-46.6-10.3-1.5.8-1.5 1 .1 2.4 2.9 2.5 54.4 33.9 69.6 42.4 7.5 4.3 13.7 8.2 13.7 8.7s.5.6 1.2.2c.7-.5.8-.3.3.6-.6 1-.4 1.2.9.7 1.1-.5 1.5-.3 1 .5s-.2.9 1 .5c.9-.4 1.5-.3 1.2.2-.5.7 20 13.4 51.9 32.1 75.9 44.5 147.7 78.3 195.5 92 27.8 7.9 45.1 10.9 64.8 11.1 15.9.1 21.2-2.4 21.2-10.3 0-12.4-28.7-32.7-58.3-41.2l-8-2.3v-13.4c0-7.4.5-26.2 1.2-41.9 2.5-55.3-1.5-125.1-8.1-139.5l-1.1-2.4-2.8 3.1c-3.7 3.9-5.1 3.6-19.4-4.7-22.4-13-63.3-31.2-97.6-43.5-14.1-5.1-33.1-9.7-45.1-11-10.6-1.1-11.2-1.1-21 0z"/><path d="M348.5 139.6c1.7.9 8.9 5 16.1 9 15.5 8.8 19.4 9.3 20.6 3 .7-4.2-17.9-11.5-33.2-13-6.4-.7-6.5-.6-3.5 1zM36.7 215.7c-.7 1.1.9 13.9 2.3 19.6 2.4 9.2 6.8 18.7 11.9 25.5 4.6 6.3 10.1 9 33.2 16.3 40.9 12.9 94.3 33.1 145.2 54.7 10.3 4.4 18.7 7.8 18.7 7.6 0-.1-4.8-2.9-10.7-6-17.9-9.5-67.2-37.7-93.3-53.4-25.3-15.2-35.8-21.7-78.8-48.4-27.2-16.9-27.7-17.2-28.5-15.9z"/></svg>