<svg version="1" xmlns="http://www.w3.org/2000/svg" width="666.667" height="666.667" viewBox="0 0 500.000000 500.000000"><path d="M209.4 113.4c-12.5 2.9-21.5 10-32.6 25.8-5.1 7.2-6.7 8.8-8.3 8.3-5.1-1.3-30.9-6.4-39-7.6-13.9-2.1-50-1.9-59.6.4-9.9 2.3-20.6 7.5-25.4 12.3-11.2 11.2-12.4 30.5-3.4 56.2 20 56.5 82.2 108.3 173.9 144.7 73.1 29.1 151.1 41.3 193.7 30.5 25.6-6.6 35.5-20.2 30.9-42.8-3.1-15.4-13.6-35.8-27.3-52.9-7.7-9.6-21.8-24.2-34.1-35.4l-9.3-8.4 4.6-8.8c5.5-10.8 5.9-15.3 1.7-24.2-6.1-12.9-27.4-35.1-49.8-51.9-12.9-9.7-36.7-24.3-51.4-31.6-25.3-12.7-49.3-18-64.6-14.6zm32.4 7.1c19.8 5.3 39.9 15.4 65.8 33 26.7 18.1 46.4 35.8 58 52 9.3 13.1 9.1 18.7-.7 34.8-7 11.3-10.7 19-14.7 30.2-2.6 7.6-2.9 8-6.7 9.2-4.3 1.2-23.2 1.7-28.3.7l-3.1-.6 2.2-2c2-1.8 2-1.9.2-1.2-7.8 2.8-9.1 2.8-23.4.1-34.9-6.7-64.8-18.3-89-34.6-29.3-19.7-50.1-42.8-50.1-55.5 0-1.4 2.3-5.7 5.1-9.8 2.7-4 10.4-15.3 17-25 16.7-24.8 22.3-30 35.4-33.5 7-1.8 21-.9 32.3 2.2zM118.1 144c17.6 1.8 46.2 7.1 48.3 9 .8.8-17.2 27.2-32 46.9-3.6 4.8-6.6 9.9-7 11.9-1.7 8.7 4.9 19.7 22 36.7 31 30.9 62.8 49.2 110.2 63.4 15.4 4.7 41.6 10.6 53.4 12.2 15.7 2.1 28.2.1 31-5.1.6-1.1 2.4-9 4.1-17.5 1.6-8.5 4.1-19.4 5.5-24.2 3-10.3 11.2-28.3 12.9-28.3 1.9 0 29.6 27.1 38.2 37.3 26.5 31.6 37.4 62.6 27.6 78.5-15.9 25.9-98.1 23.8-184.4-4.8-99.8-33-173.7-86.6-198.5-144-6.2-14.4-8.6-24.4-8.8-36.5-.1-9.2.2-11.7 2-15.5 4.9-10.5 16.7-17.2 34.9-19.9 8.6-1.2 28.6-1.3 40.6-.1z"/><path d="M200.4 128.4c-1.3 7.2 2 15 9.8 22.6 6.8 6.7 21.3 13.8 37.8 18.6 6.9 2 25.8 7.6 42 12.6 34.7 10.6 33.8 10.4 32.5 9.1-2.9-2.9-47.1-18.1-73.5-25.3-13.7-3.7-29.7-11.2-36.2-16.9-5.9-5.2-9.8-12.9-9.8-19.3 0-5.5-1.6-6.4-2.6-1.4zM266 188.9c-1.1.8.6 1.1 6.3 1.1 10.8 0 16.9 2.4 31.9 12.7 7 4.7 13 8.4 13.3 8.1 1.1-1.1-16.9-13.8-25.3-18-7.3-3.7-9.3-4.2-16.5-4.5-4.7-.2-8.8 0-9.7.6zM334.7 239.7c.7 8.8-.5 11.7-6.3 15.1-10 5.8-31.4 20.3-31.4 21.2 0 2.9 32.9-15.8 38-21.7 3.7-4.1 4.3-10.4 1.9-18.1-1.7-5.3-2.8-3.6-2.2 3.5zM289 257c-3 .5-10.6.8-16.7.9-11.6.1-14.9 1.3-6.7 2.5 10 1.3 29.1-.7 31.8-3.4 1.1-1.1.1-1.1-8.4 0z"/></svg>