<svg version="1" xmlns="http://www.w3.org/2000/svg" width="666.667" height="666.667" viewBox="0 0 500.000000 500.000000"><path d="M187 108.4c-8 2.1-15.7 7.3-21.4 14.4-8.1 10.2-17.1 23.6-31.4 46.7-7.2 11.6-14.4 22.9-16.1 25.2-4.1 5.7-18.5 30.3-18 30.7.8.8 44.2 18.1 60.4 24.1 9.4 3.5 24 9.8 32.5 14 8.5 4.3 21.8 10.6 29.5 14.2 7.7 3.5 18.7 8.8 24.5 11.7 5.8 2.9 14.3 7 19 9.1 27.8 12.2 99.7 47.4 108.4 53l5.6 3.5 1.5-3.7c.9-2 1.8-4.8 2.2-6.2.7-3.2 8.1-22.5 13.5-35.1 4.7-11.2 8.7-23.6 13.3-41.5 1.9-7.2 4.6-16.4 6-20.5 3.2-9.1 4.6-23 2.3-23-2.8 0-14.8-11.1-19.3-17.8-21.3-31.8-68.4-66.6-112-82.7-16.2-6.1-48.7-13.4-72.5-16.5-10.1-1.3-22.5-1.1-28 .4zm134.8 89.8c.2.4.7.6 1.2.3.4-.2 3.4.6 6.6 2 3.3 1.3 5.2 2.5 4.4 2.5-.8.1-.1.7 1.6 1.3 3.3 1.3 6.4 3.9 6.4 5.5 0 .6.7 1.2 1.5 1.6.8.3 1.5 1.2 1.5 2.1 0 .8.9 1.5 2 1.5 2.3 0 4.7 3.6 2.7 4.3-.6.2 1.2.7 4.1 1.1 3.7.6 6 1.6 8 3.5 1.5 1.5 3.9 3.1 5.4 3.4 3.2.8 7 4.6 6.1 6-.4.6 0 .8 1 .4 1-.3 1.7-.2 1.7.3 0 .6.6 1 1.3 1 .8 0 2.4.9 3.6 1.9 1.2 1.1 3.2 2.6 4.4 3.4 2 1.3 2 1.4.2 1.2-3.9-.3-12.4-3.7-12.2-4.8.1-.6-.3-1.1-1-1.2-.7 0-1.8-.6-2.5-1.4-1.1-1.2-1-1.3.2-.6 1.3.8 1.3.6.1-.8-.7-.9-1.7-1.5-2.1-1.2-.4.3-1-.1-1.3-.9-.3-.8-1.4-1.3-2.4-1.1-1 .1-2.8-.4-4.1-1.2-1.2-.7-2.7-1.1-3.2-.8-.6.3-1 .1-1-.5s-.4-.8-1-.5c-.5.3-2.5-.1-4.4-1-1.9-.9-4-1.4-4.6-1-.5.3-2.5-.9-4.3-2.8-1.7-1.9-4.2-3.7-5.5-4.2-1.3-.4-2.1-1.2-1.9-1.8.3-.8-.8-1.2-3.2-1.2-2.3 0-3.5-.4-3.3-1.3.1-.6-.3-1.2-.8-1.2s-1 .4-1 1c0 .5-.8.2-1.8-.8-1.1-.9-1.5-2.1-1.1-2.6 1-1.2-2-3.5-4.5-3.6-1.2 0-1.6-.5-1.2-1.6.3-.8.2-1.3-.3-1-1.2.8-2.2-2-1.4-4.1.4-1.1.3-1.4-.5-.9-.7.4-1.2.1-1.2-.8 0-1.1.8-1.3 3.8-.9 2 .3 3.9 1 4 1.5zm-1.3 10.8c.3.5.1 1-.4 1-.6 0-1.1-.5-1.1-1 0-.6.2-1 .4-1 .3 0 .8.4 1.1 1z"/><path d="M384 183.4c0 .3 2.8 3.6 6.1 7.3 3.4 3.8 8.3 9.9 10.9 13.8 6.5 9.6 18 20 18 16.3 0-3.3-6.3-14-11.5-19.7-6.2-6.6-23.5-19.7-23.5-17.7zM15.3 194.7c-1.2 3.1 3.8 10.5 9.7 14.4 9.1 6.1 65.6 34.1 80 39.8 39.3 15.4 97.2 38.7 117 47.1 4.1 1.7 9.1 3.7 11 4.4 6.6 2.5 115.5 57.2 122.5 61.6 9.6 5.9 30.3 18 31 18 .2 0 6.2 3.2 13.2 7.1 33.6 18.5 53.3 26.9 53.3 22.6 0-4.4-18.1-20.8-30-27.2-3.6-1.9-7.6-4.1-9-4.9-1.4-.8-5.6-3-9.5-4.9-3.8-1.8-11.5-5.9-17-8.9s-13.7-7.5-18.1-10c-4.5-2.5-13-6.7-19-9.3-10-4.4-19.6-9-33.1-15.8-6.1-3.1-43.8-20.5-47.2-21.8-1.3-.5-6.9-3.5-12.5-6.7-12.9-7.4-24.9-13.2-36.2-17.6-9.3-3.5-18.1-7.5-37.4-16.9-10.8-5.3-16.4-7.5-32-13.1-3.6-1.3-10.5-4.4-15.5-6.9-4.9-2.4-12.1-5.7-16-7.2-3.8-1.4-9.2-3.7-12-5-2.7-1.3-12-5.4-20.5-9.1-8.5-3.7-17.3-7.8-19.5-9-2.3-1.3-6.1-3-8.5-3.9-2.4-.9-5.3-2.5-6.3-3.6s-2.6-1.8-3.4-1.5c-.8.3-1.2.2-.9-.3.3-.5-.1-1.2-1-1.5-2.4-.9-3.1-.7-1.4.4 1.3.9 1.3 1 0 .9-1.7 0-7-2.8-5.5-2.9.6 0-.6-.9-2.5-1.9-1.9-1.1-3.8-1.7-4.2-1.4-.5.2-.8-.1-.8-.6 0-.6-.3-1-.7-.9-.5.1-3.3-1.1-6.3-2.5-6.4-3.1-10.8-3.5-11.7-1zM387.6 336.5c-.3.9-.6 2.2-.5 2.8 0 .7.5.1 1-1.2s.8-2.6.5-2.8c-.2-.2-.6.3-1 1.2zM384.1 347.1c-.6 1.8-.9 3.4-.7 3.6.2.2.9-1 1.5-2.8.6-1.8.9-3.4.7-3.6-.2-.2-.9 1-1.5 2.8z"/></svg>