<?xml version="1.0" encoding="utf-8"?>
<!-- Generator: Adobe Illustrator 21.1.0, SVG Export Plug-In . SVG Version: 6.00 Build 0)  -->
<svg version="1.0" id="Layer_1" xmlns="http://www.w3.org/2000/svg" xmlns:xlink="http://www.w3.org/1999/xlink" x="0px" y="0px"
	 viewBox="0 0 24 24" style="enable-background:new 0 0 24 24;" xml:space="preserve">
<style type="text/css">
	.st0{fill:#626262;}
</style>
<g>
	<path class="st0" d="M9.9,14.2L9.9,14.2C9.9,14.1,9.9,14.1,9.9,14.2z"/>
	<path class="st0" d="M12,9c-1.7,0-3,1.3-3,3c0,0.5,0.1,0.9,0.3,1.3l4-4C12.9,9.1,12.5,9,12,9z"/>
	<path class="st0" d="M12,2C6.5,2,2,6.5,2,12s4.5,10,10,10s10-4.5,10-10S17.5,2,12,2z M12,17c-2.8,0-5-2.2-5-5s2.2-5,5-5s5,2.2,5,5
		S14.8,17,12,17z"/>
	<path class="st0" d="M10.7,14.7c0.4,0.2,0.8,0.3,1.3,0.3c1.7,0,3-1.3,3-3c0-0.5-0.1-0.9-0.3-1.3L10.7,14.7z"/>
</g>
</svg>
